<?xml version="1.0" encoding="iso-8859-1"?>
<!-- Generator: Adobe Illustrator 18.0.0, SVG Export Plug-In . SVG Version: 6.00 Build 0)  -->
<!DOCTYPE svg PUBLIC "-//W3C//DTD SVG 1.1//EN" "http://www.w3.org/Graphics/SVG/1.1/DTD/svg11.dtd">
<svg xmlns="http://www.w3.org/2000/svg" xmlns:xlink="http://www.w3.org/1999/xlink" version="1.1" id="Capa_1" x="0px" y="0px" viewBox="0 0 240.29 240.29" style="enable-background:new 0 0 240.29 240.29;" xml:space="preserve" width="512px" height="512px">
<g>
	<path d="M213.44,76.429c-1.421-1.338-3.404-1.899-5.315-1.509c-26.488,5.424-52.111,20.133-72.15,41.419   c-5.764,6.123-10.935,12.685-15.499,19.549c2.087-12.73,3.698-25.153,4.939-36.909c0.399-0.104,0.791-0.243,1.167-0.43   c16.123-8.034,30.087-21.881,39.319-38.991c9.232-17.109,13.142-36.382,11.008-54.268c-0.231-1.938-1.391-3.643-3.108-4.569   c-1.717-0.926-3.779-0.96-5.525-0.09c-15.935,7.941-29.753,21.566-38.988,38.401c0.355-14.731,0.124-24.149,0.084-25.532   c-0.093-3.255-2.76-5.831-5.995-5.831c-0.057,0-0.114,0.001-0.172,0.002c-3.313,0.094-5.922,2.854-5.829,6.167   c0.01,0.343,0.237,9.647-0.165,24.751C107.977,21.959,94.266,8.502,78.472,0.63c-1.745-0.871-3.807-0.838-5.525,0.09   c-1.718,0.927-2.877,2.631-3.108,4.569c-2.134,17.888,1.775,37.161,11.008,54.269v0c7.256,13.447,17.443,24.864,29.296,33.042   c1.142,0.788,2.298,1.551,3.47,2.277c-1.243,12.22-2.882,25.21-5.036,38.515c-0.819-4.371-1.839-8.731-3.083-13.06   c-2.886-10.047-6.892-19.925-11.987-29.366C79.622,65.24,58.65,44.431,34.449,32.371c-1.745-0.871-3.807-0.838-5.525,0.09   c-1.718,0.927-2.877,2.631-3.108,4.569c-3.204,26.849,2.678,55.803,16.561,81.528c12.913,23.93,31.965,43.595,54.038,55.932   c1.125,0.629,2.262,1.225,3.402,1.815c-2.512,9.982-5.377,19.872-8.649,29.486c-3.049,8.959-6.446,17.681-10.238,26.011   c-1.373,3.016-0.041,6.574,2.976,7.947c0.806,0.367,1.65,0.541,2.481,0.541c2.279,0,4.459-1.306,5.465-3.516   c5.683-12.486,10.512-25.722,14.618-39.27c26.368-5.48,51.859-20.148,71.81-41.342c20.037-21.286,33.173-47.75,36.988-74.518   C215.543,79.712,214.861,77.766,213.44,76.429z M139.514,45.32c6.448-11.948,15.479-22.047,25.956-29.165   c-0.199,12.664-3.684,25.756-10.131,37.705c-6.447,11.948-15.479,22.047-25.955,29.165C129.582,70.36,133.067,57.267,139.514,45.32   z M98.849,162.037c-18.651-11.308-34.749-28.49-45.912-49.177v0C41.773,92.173,36.247,69.286,37.033,47.489   c18.65,11.308,34.748,28.489,45.912,49.177C94.11,117.353,99.635,140.241,98.849,162.037z M91.406,53.859   C91.406,53.859,91.406,53.859,91.406,53.859c-6.448-11.948-9.932-25.041-10.131-37.705c10.477,7.118,19.508,17.217,25.955,29.165   c6.448,11.947,9.932,25.04,10.131,37.705C106.885,75.907,97.854,65.807,91.406,53.859z M169.541,147.936   c-16.112,17.117-36.09,29.576-57.023,35.702c4.852-21.265,16.081-41.958,32.194-59.075c16.113-17.117,36.091-29.576,57.023-35.702   C196.884,110.127,185.654,130.82,169.541,147.936z" fill="#00B16A"/>
</g>
<g>
</g>
<g>
</g>
<g>
</g>
<g>
</g>
<g>
</g>
<g>
</g>
<g>
</g>
<g>
</g>
<g>
</g>
<g>
</g>
<g>
</g>
<g>
</g>
<g>
</g>
<g>
</g>
<g>
</g>
</svg>
